REM DIRINDEX 1\5,1\2\6,1\2\7,1\3\8,1\3\9,1\4\10,1\4\11,1\4\12
REM DIRNAME cjc026,folder01,folder02,folder03,folder04,folder05,folder06,folder07,folder08,folder09,folder10,folder11
TITLE ""
FILE "EJE_DB3000_5th_1A_17.mp3" MP3
  TRACK 01 AUDIO
    TITLE "0:"
    INDEX 01 00:00:00
  TRACK 02 AUDIO
    TITLE "10:cjc026_07326"
    INDEX 01 00:00:05
  TRACK 03 AUDIO
    TITLE "0:"
    INDEX 01 00:02:17
  TRACK 04 AUDIO
    TITLE "11:cjc026_07327"
    INDEX 01 00:02:55
  TRACK 05 AUDIO
    TITLE "0:"
    INDEX 01 00:04:05
  TRACK 06 AUDIO
    TITLE "12:cjc026_07328"
    INDEX 01 00:04:40
  TRACK 07 AUDIO
    TITLE "0:"
    INDEX 01 00:06:52
  TRACK 08 AUDIO
    TITLE "10:cjc026_07329"
    INDEX 01 00:07:12
  TRACK 09 AUDIO
    TITLE "0:"
    INDEX 01 00:08:23
  TRACK 10 AUDIO
    TITLE "11:cjc026_07330"
    INDEX 01 00:08:58
  TRACK 11 AUDIO
    TITLE "0:"
    INDEX 01 00:10:06
  TRACK 12 AUDIO
    TITLE "12:cjc026_07331"
    INDEX 01 00:10:43
  TRACK 13 AUDIO
    TITLE "0:"
    INDEX 01 00:11:55
  TRACK 14 AUDIO
    TITLE "10:cjc026_07332"
    INDEX 01 00:12:12
  TRACK 15 AUDIO
    TITLE "0:"
    INDEX 01 00:13:21
  TRACK 16 AUDIO
    TITLE "11:cjc026_07333"
    INDEX 01 00:13:56
  TRACK 17 AUDIO
    TITLE "0:"
    INDEX 01 00:15:03
  TRACK 18 AUDIO
    TITLE "12:cjc026_07334"
    INDEX 01 00:15:38
  TRACK 19 AUDIO
    TITLE "0:"
    INDEX 01 00:16:47
  TRACK 20 AUDIO
    TITLE "10:cjc026_07335"
    INDEX 01 00:17:07
  TRACK 21 AUDIO
    TITLE "0:"
    INDEX 01 00:18:32
  TRACK 22 AUDIO
    TITLE "11:cjc026_07336"
    INDEX 01 00:18:67
  TRACK 23 AUDIO
    TITLE "0:"
    INDEX 01 00:21:34
  TRACK 24 AUDIO
    TITLE "12:cjc026_07337"
    INDEX 01 00:21:69
  TRACK 25 AUDIO
    TITLE "0:"
    INDEX 01 00:23:19
  TRACK 26 AUDIO
    TITLE "10:cjc026_07338"
    INDEX 01 00:23:54
  TRACK 27 AUDIO
    TITLE "0:"
    INDEX 01 00:24:38
  TRACK 28 AUDIO
    TITLE "11:cjc026_07339"
    INDEX 01 00:25:12
  TRACK 29 AUDIO
    TITLE "0:"
    INDEX 01 00:27:45
  TRACK 30 AUDIO
    TITLE "12:cjc026_07340"
    INDEX 01 00:28:06
  TRACK 31 AUDIO
    TITLE "0:"
    INDEX 01 00:28:68
  TRACK 32 AUDIO
    TITLE "10:cjc026_07341"
    INDEX 01 00:29:39
  TRACK 33 AUDIO
    TITLE "0:"
    INDEX 01 00:30:55
  TRACK 34 AUDIO
    TITLE "11:cjc026_07342"
    INDEX 01 00:31:18
  TRACK 35 AUDIO
    TITLE "0:"
    INDEX 01 00:32:30
  TRACK 36 AUDIO
    TITLE "12:cjc026_07343"
    INDEX 01 00:32:65
  TRACK 37 AUDIO
    TITLE "0:"
    INDEX 01 00:34:06
  TRACK 38 AUDIO
    TITLE "10:cjc026_07344"
    INDEX 01 00:34:44
  TRACK 39 AUDIO
    TITLE "0:"
    INDEX 01 00:35:56
  TRACK 40 AUDIO
    TITLE "11:cjc026_07345"
    INDEX 01 00:36:18
  TRACK 41 AUDIO
    TITLE "0:"
    INDEX 01 00:37:35
  TRACK 42 AUDIO
    TITLE "12:cjc026_07346"
    INDEX 01 00:37:70
  TRACK 43 AUDIO
    TITLE "0:"
    INDEX 01 00:39:07
  TRACK 44 AUDIO
    TITLE "10:cjc026_07347"
    INDEX 01 00:39:45
  TRACK 45 AUDIO
    TITLE "0:"
    INDEX 01 00:40:67
  TRACK 46 AUDIO
    TITLE "11:cjc026_07348"
    INDEX 01 00:41:27
  TRACK 47 AUDIO
    TITLE "0:"
    INDEX 01 00:42:46
  TRACK 48 AUDIO
    TITLE "12:cjc026_07349"
    INDEX 01 00:43:09
  TRACK 49 AUDIO
    TITLE "0:"
    INDEX 01 00:44:15
  TRACK 50 AUDIO
    TITLE "10:cjc026_07350"
    INDEX 01 00:44:66
  TRACK 51 AUDIO
    TITLE "0:"
    INDEX 01 00:46:06
  TRACK 52 AUDIO
    TITLE "11:cjc026_07351"
    INDEX 01 00:46:41
  TRACK 53 AUDIO
    TITLE "0:"
    INDEX 01 00:47:49
  TRACK 54 AUDIO
    TITLE "12:cjc026_07352"
    INDEX 01 00:48:09
  TRACK 55 AUDIO
    TITLE "0:"
    INDEX 01 00:49:21
  TRACK 56 AUDIO
    TITLE "10:cjc026_07353"
    INDEX 01 00:49:59
  TRACK 57 AUDIO
    TITLE "0:"
    INDEX 01 00:51:06
  TRACK 58 AUDIO
    TITLE "11:cjc026_07354"
    INDEX 01 00:51:41
  TRACK 59 AUDIO
    TITLE "0:"
    INDEX 01 00:53:04
  TRACK 60 AUDIO
    TITLE "12:cjc026_07355"
    INDEX 01 00:53:39
  TRACK 61 AUDIO
    TITLE "0:"
    INDEX 01 00:54:59
  TRACK 62 AUDIO
    TITLE "10:cjc026_07356"
    INDEX 01 00:55:22
  TRACK 63 AUDIO
    TITLE "0:"
    INDEX 01 00:56:49
  TRACK 64 AUDIO
    TITLE "11:cjc026_07357"
    INDEX 01 00:57:12
  TRACK 65 AUDIO
    TITLE "0:"
    INDEX 01 00:58:64
  TRACK 66 AUDIO
    TITLE "12:cjc026_07358"
    INDEX 01 00:59:24
  TRACK 67 AUDIO
    TITLE "0:"
    INDEX 01 01:00:54
  TRACK 68 AUDIO
    TITLE "10:cjc026_07359"
    INDEX 01 01:01:15
  TRACK 69 AUDIO
    TITLE "0:"
    INDEX 01 01:02:31
  TRACK 70 AUDIO
    TITLE "11:cjc026_07360"
    INDEX 01 01:02:69
  TRACK 71 AUDIO
    TITLE "0:"
    INDEX 01 01:04:54
  TRACK 72 AUDIO
    TITLE "12:cjc026_07361"
    INDEX 01 01:05:14
  TRACK 73 AUDIO
    TITLE "0:"
    INDEX 01 01:06:28
